# xmcd
#
# Track frame offsets:
#	150
#	35202
#	51024
#	67299
#	91884
#	109658
#	136859
#	161360
#	172119
#	192093
#
# Disc length: 2988 seconds
#
# Revision: 1
# Processed by: cddbd v1.5.1PL0 Copyright (c) Steve Scherf et al.
# Submitted via: audiograbber 1.83.01
#
DISCID=890baa0a
DTITLE=Muddy Waters - Hard Again
DYEAR=1900
DGENRE=Blues
TTITLE0=Bus Driver
TTITLE1=I Can't be Satisfied
TTITLE2=The Blues Had a Baby And They Named it Rock and Roll #2
TTITLE3=Deep Down in Florida
TTITLE4=Walking Through the Park
TTITLE5=Crosseyed Cat
TTITLE6=Mannish Boy
TTITLE7=I Want to be Loved
TTITLE8=Jealous Hearted Man
TTITLE9=Little Girl
EXTD=
EXTT0=
EXTT1=
EXTT2=
EXTT3=
EXTT4=
EXTT5=
EXTT6=
EXTT7=
EXTT8=
EXTT9=
PLAYORDER=
